<?xml version="1.0" standalone="no"?><!DOCTYPE svg PUBLIC "-//W3C//DTD SVG 1.1//EN" "http://www.w3.org/Graphics/SVG/1.1/DTD/svg11.dtd"><svg t="1770878337152" class="icon" viewBox="0 0 1024 1024" version="1.1" xmlns="http://www.w3.org/2000/svg" p-id="13843" xmlns:xlink="http://www.w3.org/1999/xlink" width="48" height="48"><path d="M870.4 102.4h1.024c1.1776 0 2.3552 0.1024 3.584 0.2048L870.4 102.4a51.6096 51.6096 0 0 1 31.5904 10.9056c3.2256 2.56 6.144 5.4784 8.704 8.704l-4.096-4.608a51.6096 51.6096 0 0 1 14.9504 34.56L921.6 153.6v614.4a51.2 51.2 0 0 1-102.4 0V277.1968L189.7984 906.5984a51.2 51.2 0 1 1-72.3968-72.3968L746.7008 204.8H256a51.2 51.2 0 0 1-50.8416-45.2096L204.8 153.6a51.2 51.2 0 0 1 51.2-51.2h614.4z" fill="#1296db" p-id="13844"></path></svg>