<?xml version="1.0" standalone="no"?><!DOCTYPE svg PUBLIC "-//W3C//DTD SVG 1.1//EN" "http://www.w3.org/Graphics/SVG/1.1/DTD/svg11.dtd"><svg t="1770878390772" class="icon" viewBox="0 0 1024 1024" version="1.1" xmlns="http://www.w3.org/2000/svg" p-id="16305" xmlns:xlink="http://www.w3.org/1999/xlink" width="48" height="48"><path d="M870 178.2c10.6 0 20.6 4.2 28.2 11.8 7.6 7.6 11.8 17.6 11.8 28.2v587.6c0 10.6-4.2 20.6-11.8 28.2-7.6 7.6-17.6 11.8-28.2 11.8H154c-10.6 0-20.6-4.2-28.2-11.8-7.6-7.6-11.8-17.6-11.8-28.2V218.2c0-10.6 4.2-20.6 11.8-28.2 7.6-7.6 17.6-11.8 28.2-11.8h716m0-50H154c-49.5 0-90 40.5-90 90v587.6c0 49.5 40.5 90 90 90h716c49.5 0 90-40.5 90-90V218.2c0-49.5-40.5-90-90-90z" p-id="16306" fill="#1296db"></path><path d="M512 256h319.9v255.9H512V256zM192 511.9h320v255.9H192V511.9z" p-id="16307" fill="#1296db"></path></svg>